<?xml version="1.0" encoding="UTF-8"?>
<svg id="Layer_2" data-name="Layer 2" xmlns="http://www.w3.org/2000/svg" viewBox="0 0 61.69 34.49">
  <defs>
    <style>
      .cls-1 {
        fill: #ffdf00;
      }

      .cls-2 {
        fill: #fff;
      }

      .cls-3 {
        fill: red;
      }
    </style>
  </defs>
  <g id="_40_px" data-name="40 px">
    <path class="cls-2" d="m51.77,23.56c-3.27,0-6.32-1.61-8.17-4.3l3.31-2.28c1.1,1.6,2.92,2.56,4.86,2.56,3.25,0,5.9-2.64,5.9-5.9s-2.64-5.9-5.9-5.9c-1.96,0-3.79.97-4.89,2.6l-3.33-2.25c1.85-2.74,4.92-4.37,8.22-4.37,5.47,0,9.92,4.45,9.92,9.92s-4.45,9.92-9.92,9.92Z"/>
    <rect class="cls-2" x="43.24" y="4.1" width="4.02" height="23.45"/>
    <path class="cls-1" d="m45.55,17.24h0c0-6.16-3.29-11.85-8.62-14.93h0c-5.34-3.08-11.91-3.08-17.24,0h0c-5.34,3.08-8.62,8.77-8.62,14.93h0c0,6.16,3.29,11.85,8.62,14.93h0c5.34,3.08,11.91,3.08,17.24,0h0c5.34-3.08,8.62-8.77,8.62-14.93Z"/>
    <g>
      <path class="cls-3" d="m30.5,14.95c1.21.69,2.02,1.99,2.02,3.48,0,.02,0,.04,0,.06l1.76,1.02c.06-.35.1-.71.1-1.08,0-2.54-1.61-4.71-3.88-5.53v2.04Z"/>
      <path class="cls-3" d="m24.49,18.5s0-.04,0-.06c0-1.49.81-2.79,2.02-3.48v-2.04c-2.26.82-3.87,2.98-3.87,5.52,0,.37.03.73.1,1.08l1.76-1.02Z"/>
      <path class="cls-3" d="m28.51,22.45c-.72,0-1.39-.19-1.97-.52l-1.78,1.03c1.02.84,2.32,1.35,3.75,1.35s2.73-.51,3.75-1.35l-1.78-1.03c-.58.33-1.26.52-1.97.52Z"/>
      <path d="m37.35,19.53c-.75,0-1.45.21-2.06.57-.28.17-.53.37-.76.59l-.49-.28-.75-.43-.9-.52h0s-.74-.43-.74-.43h0c.04-.19.06-.39.06-.59,0-.14-.01-.29-.03-.43h0c-.11-.84-.55-1.57-1.18-2.08-.27-.21-.57-.38-.89-.5v-.85s0-1.91,0-1.91v-.7c.32-.09.62-.22.89-.38,1.2-.69,2.01-1.99,2.01-3.48,0-2.22-1.8-4.01-4.01-4.01s-4.01,1.8-4.01,4.01c0,1.49.81,2.79,2.01,3.48.28.16.58.29.89.38v.7s0,1.91,0,1.91v.85h0c-.33.12-.63.29-.89.51-.63.5-1.06,1.24-1.18,2.08h0c-.02.14-.03.28-.03.42,0,.2.02.4.06.59h0s-.74.43-.74.43l-1.65.95-.43.25c-.23-.23-.49-.42-.77-.59-.59-.34-1.28-.54-2.01-.54-2.22,0-4.01,1.8-4.01,4.01s1.8,4.01,4.01,4.01,4.01-1.8,4.01-4.01c0,0,0,0,0,0,0-.33-.04-.66-.12-.96l.44-.26,1.66-.96.74-.43h0c.27.22.57.39.9.51h0c.35.13.72.2,1.12.2s.77-.07,1.12-.2h0c.33-.12.63-.3.9-.51h0s.74.43.74.43l1.66.96.52.3c-.07.3-.11.61-.11.93,0,.01,0,.03,0,.04.02,2.2,1.81,3.97,4.01,3.97s4.01-1.8,4.01-4.01-1.8-4.01-4.01-4.01Z"/>
    </g>
    <path class="cls-2" d="m8.53,23.56c-3.27,0-6.32-1.61-8.17-4.3l3.31-2.28c1.1,1.6,2.92,2.56,4.86,2.56,3.25,0,5.9-2.64,5.9-5.9s-2.64-5.9-5.9-5.9c-1.96,0-3.79.97-4.89,2.6L.31,8.1c1.85-2.74,4.92-4.37,8.22-4.37,5.47,0,9.92,4.45,9.92,9.92s-4.45,9.92-9.92,9.92Z"/>
    <rect class="cls-2" x="0" y="4.1" width="4.02" height="23.45"/>
  </g>
</svg>