<?xml version="1.0" encoding="UTF-8"?>
<svg id="Layer_2" data-name="Layer 2" xmlns="http://www.w3.org/2000/svg" viewBox="0 0 71.55 40">
  <defs>
    <style>
      .cls-1 {
        fill: #ffdf00;
      }

      .cls-2 {
        fill: red;
      }
    </style>
  </defs>
  <g id="_40_px" data-name="40 px">
    <path d="m60.05,27.33c-3.79,0-7.33-1.86-9.48-4.99l3.84-2.64c1.28,1.86,3.39,2.97,5.64,2.97,3.77,0,6.84-3.07,6.84-6.84s-3.07-6.84-6.84-6.84c-2.28,0-4.4,1.13-5.67,3.02l-3.86-2.61c2.14-3.17,5.71-5.07,9.54-5.07,6.34,0,11.5,5.16,11.5,11.5s-5.16,11.5-11.5,11.5Z"/>
    <rect x="50.15" y="4.75" width="4.66" height="27.2"/>
    <path class="cls-1" d="m52.83,20h0c0-7.15-3.81-13.75-10-17.32h0c-6.19-3.57-13.81-3.57-20,0h0c-6.19,3.57-10,10.18-10,17.32h0c0,7.15,3.81,13.75,10,17.32h0c6.19,3.57,13.81,3.57,20,0h0c6.19-3.57,10-10.18,10-17.32Z"/>
    <g>
      <path class="cls-2" d="m35.38,17.34c1.4.8,2.34,2.31,2.34,4.04,0,.02,0,.05,0,.07l2.04,1.18c.07-.4.11-.82.11-1.25,0-2.95-1.87-5.46-4.5-6.41v2.37Z"/>
      <path class="cls-2" d="m28.41,21.45s0-.05,0-.07c0-1.73.94-3.23,2.34-4.04v-2.37c-2.62.95-4.49,3.46-4.49,6.41,0,.43.04.85.11,1.25l2.04-1.18Z"/>
      <path class="cls-2" d="m33.06,26.04c-.83,0-1.61-.22-2.29-.6l-2.06,1.19c1.18.98,2.69,1.57,4.35,1.57s3.17-.59,4.35-1.57l-2.06-1.19c-.68.38-1.46.6-2.29.6Z"/>
      <path d="m43.32,22.65c-.87,0-1.69.24-2.39.66-.32.19-.62.42-.89.69l-.56-.33-.87-.5-1.04-.6h0s-.85-.49-.85-.49h0c.04-.22.06-.45.06-.69,0-.17-.01-.33-.03-.49h0c-.13-.97-.63-1.83-1.36-2.41-.31-.25-.66-.45-1.04-.59v-4.01c.37-.1.71-.25,1.04-.44,1.4-.8,2.34-2.31,2.34-4.04,0-2.57-2.08-4.65-4.65-4.65s-4.65,2.08-4.65,4.65c0,1.73.94,3.23,2.34,4.04.32.19.67.33,1.04.44v4.01h0c-.38.14-.73.34-1.04.59-.73.58-1.23,1.44-1.36,2.41h0c-.02.16-.03.32-.03.49,0,.24.02.47.06.69h0s-.85.49-.85.49l-1.91,1.11-.5.29c-.27-.26-.57-.49-.9-.68-.69-.4-1.48-.63-2.34-.63-2.57,0-4.65,2.08-4.65,4.65s2.08,4.65,4.65,4.65,4.65-2.08,4.65-4.65c0,0,0,0,0-.01,0-.39-.05-.76-.14-1.12l.52-.3,1.92-1.11.86-.5h0c.31.25.66.45,1.04.6h0c.4.15.84.23,1.29.23s.89-.08,1.3-.23h0c.38-.14.73-.35,1.04-.6h0s.86.5.86.5l1.92,1.11.61.35c-.08.35-.13.71-.13,1.08,0,.02,0,.03,0,.05.02,2.55,2.1,4.61,4.65,4.61s4.65-2.08,4.65-4.65-2.08-4.65-4.65-4.65Z"/>
    </g>
    <path d="m9.89,27.33c-3.79,0-7.33-1.86-9.48-4.99l3.84-2.64c1.28,1.86,3.39,2.97,5.64,2.97,3.77,0,6.84-3.07,6.84-6.84s-3.07-6.84-6.84-6.84c-2.28,0-4.4,1.13-5.67,3.02L.35,9.4c2.14-3.17,5.71-5.07,9.54-5.07,6.34,0,11.5,5.16,11.5,11.5s-5.16,11.5-11.5,11.5Z"/>
    <rect y="4.75" width="4.66" height="27.2"/>
  </g>
</svg>